<svg width="1440" height="216" viewBox="0 0 1440 216" fill="none" xmlns="http://www.w3.org/2000/svg">
<path d="M46.7207 58.565C44.7184 30.5599 14.7393 17.7242 0 14.807V216H1440V21.8083C1352.57 -28.6009 1322.36 20.058 1318.19 50.6886C1248.78 41.5869 1215.3 66.1497 1207.23 79.5688C1103.11 9.5561 1035.92 71.4007 1015.34 111.075C911.889 78.1686 884.357 142.289 883.523 178.462C869.506 172.161 848.204 178.17 839.305 181.962C771.893 141.355 745.585 179.045 740.857 202.966C722.169 190.364 703.036 202.383 695.805 209.968C690.466 198.065 666.327 200.341 654.925 202.966C648.25 154.658 590.406 148.415 562.318 151.332C555.643 47.713 413.812 77.8187 402.966 118.951C372.264 108.449 346.79 119.826 337.891 126.827C306.521 114.925 274.206 128.286 261.97 136.454C227.93 67.1416 147.671 77.8185 111.796 91.8211C102.452 51.9138 64.5191 53.0223 46.7207 58.565Z" fill="white"/>
</svg>
